<svg version="1.1" viewBox="0.0 0.0 1012.501312335958 795.3123359580053" fill="none" stroke="none" stroke-linecap="square" stroke-miterlimit="10" xmlns:xlink="http://www.w3.org/1999/xlink" xmlns="http://www.w3.org/2000/svg"><clipPath id="p.0"><path d="m0 0l1012.50134 0l0 795.3123l-1012.50134 0l0 -795.3123z" clip-rule="nonzero"/></clipPath><g clip-path="url(#p.0)"><path fill="#000000" fill-opacity="0.0" d="m0 0l1012.50134 0l0 795.3123l-1012.50134 0z" fill-rule="evenodd"/><defs><linearGradient id="p.1" gradientUnits="userSpaceOnUse" gradientTransform="matrix(29.601299379408477 17.063935104021898 -17.063935104021898 29.601299379408477 0.0 0.0)" spreadMethod="pad" x1="20.952425275744833" y1="23.458674050926454" x2="39.9793066850044" y2="0.782371248499839"><stop offset="0.0" stop-color="#008080"/><stop offset="0.61" stop-color="#008080"/><stop offset="1.0" stop-color="#00ffff"/></linearGradient></defs><path fill="url(#p.1)" d="m184.10936 204.20473l335.31732 -193.70645l335.60138 193.46042l-0.08404541 386.9547l-335.31738 193.70642l-335.60135 -193.46039z" fill-rule="evenodd"/><path stroke="#000000" stroke-width="1.0" stroke-linejoin="round" stroke-linecap="butt" d="m184.10936 204.20473l335.31732 -193.70645l335.60138 193.46042l-0.08404541 386.9547l-335.31738 193.70642l-335.60135 -193.46039z" fill-rule="evenodd"/><defs><linearGradient id="p.2" gradientUnits="userSpaceOnUse" gradientTransform="matrix(19.329332967430624 11.144592233671151 -11.144592233671151 19.329332967430624 0.0 0.0)" spreadMethod="pad" x1="17.91132590401615" y1="-5.8575979656938095" x2="17.91125422017236" y2="13.47173500160389"><stop offset="0.0" stop-color="#4d4d4d"/><stop offset="1.0" stop-color="#000000"/></linearGradient></defs><path fill="url(#p.2)" d="m303.78528 273.2033l215.65558 -124.57228l226.0116 130.31007l-0.060913086 248.8764l-215.65558 124.572266l-226.01154 -130.31012z" fill-rule="evenodd"/><path fill="#000000" fill-opacity="0.0" d="m241.7308 156.44969l555.5906 0l0 482.2362l-555.5906 0z" fill-rule="evenodd"/><path fill="#ffffff" d="m338.9753 295.51968l36.6875 0l0 42.4375l28.453125 -31.671875q4.421875 -5.25 10.828125 -8.0q6.421875 -2.765625 13.03125 -2.765625q6.0625 0 10.96875 2.609375q4.921875 2.59375 8.296875 7.03125q3.375 4.421875 5.125 10.1875q1.765625 5.75 1.765625 12.140625l0 9.65625l24.90625 -30.671875q4.109375 -5.671875 10.84375 -8.3125q6.75 -2.640625 13.171875 -2.640625q6.0625 0 10.9687195 2.609375q4.921875 2.59375 8.296875 7.03125q3.375 4.421875 5.125 10.1875q1.765625 5.75 1.765625 12.140625l0 130.90625l26.625 0q-1.046875 9.21875 -3.21875 13.625q-2.171875 4.40625 -5.5 7.671875q-3.328125 3.265625 -7.65625 5.21875q-4.328125 1.9375 -9.15625 1.9375l-11.375 0q-5.796875 0 -10.6562195 -2.890625q-4.859375 -2.90625 -8.25 -7.609375q-3.390625 -4.703125 -5.265625 -10.859375q-1.875 -6.15625 -1.875 -13.03125l0 -118.65625l-38.75 46.3125l0 106.734375l-36.328125 0l0 -153.59375l-42.140625 46.9375l0 106.65625l-36.6875 0l0 -191.32812zm247.87888 56.796875l36.6875 0l0 42.234375l30.6875 -31.765625q4.234375 -4.90625 9.140625 -7.75q4.90625 -2.84375 11.765625 -2.84375q5.828125 0 11.0625 2.84375q5.25 2.828125 9.09375 7.578125q3.84375 4.734375 6.0625 10.9375q2.234375 6.1875 2.234375 13.265625l0 71.453125l24.921875 0q-1.03125 9.359375 -3.21875 13.703125q-2.171875 4.328125 -5.5 7.65625q-3.3125 3.3125 -7.65625 5.265625q-4.328125 1.953125 -9.15625 1.953125l-9.4375 0q-5.890625 0 -10.875 -2.875q-4.96875 -2.890625 -8.484375 -7.640625q-3.5 -4.765625 -5.515625 -10.921875q-2.015625 -6.171875 -2.015625 -13.203125l0 -64.078125l-43.109375 44.34375l0 54.375l-36.6875 0l0 -134.53125z" fill-rule="nonzero"/></g></svg>