<svg version="1.1" viewBox="0.0 0.0 299.9685039370079 294.34645669291336" fill="none" stroke="none" stroke-linecap="square" stroke-miterlimit="10" xmlns:xlink="http://www.w3.org/1999/xlink" xmlns="http://www.w3.org/2000/svg"><clipPath id="p.0"><path d="m0 0l299.9685 0l0 294.34647l-299.9685 0l0 -294.34647z" clip-rule="nonzero"/></clipPath><g clip-path="url(#p.0)"><path fill="#000000" fill-opacity="0.0" d="m0 0l299.9685 0l0 294.34647l-299.9685 0z" fill-rule="evenodd"/><defs><linearGradient id="p.1" gradientUnits="userSpaceOnUse" gradientTransform="matrix(18.62868659447486 0.0 0.0 18.62868659447486 0.0 0.0)" spreadMethod="pad" x1="-5.104733911685472" y1="7.916815463603888" x2="8.067713038040562" y2="21.089309744939552"><stop offset="0.0" stop-color="#008080"/><stop offset="1.0" stop-color="#1f1f1f"/></linearGradient></defs><path fill="url(#p.1)" d="m27.598425 65.68586l0 0c0 -22.587597 18.310862 -40.89846 40.898453 -40.89846l163.58893 0l0 0c10.846939 0 21.249619 4.3089333 28.91957 11.97888c7.6699524 7.6699486 11.978882 18.072632 11.978882 28.919579l0 163.5889c0 22.5876 -18.310867 40.898453 -40.898453 40.898453l-163.58893 0c-22.587593 0 -40.898453 -18.310852 -40.898453 -40.898453z" fill-rule="evenodd"/><path stroke="#000000" stroke-width="1.0" stroke-linejoin="round" stroke-linecap="butt" d="m27.598425 65.68586l0 0c0 -22.587597 18.310862 -40.89846 40.898453 -40.89846l163.58893 0l0 0c10.846939 0 21.249619 4.3089333 28.91957 11.97888c7.6699524 7.6699486 11.978882 18.072632 11.978882 28.919579l0 163.5889c0 22.5876 -18.310867 40.898453 -40.898453 40.898453l-163.58893 0c-22.587593 0 -40.898453 -18.310852 -40.898453 -40.898453z" fill-rule="evenodd"/><path fill="#000000" fill-opacity="0.0" d="m65.76378 98.59055l168.44095 0l0 97.16535l-168.44095 0z" fill-rule="evenodd"/><path fill="#ffffff" d="m89.607864 114.232605l10.109375 0l0 17.0l12.3125 -13.703125q1.359375 -1.609375 3.328125 -2.453125q1.96875 -0.84375 3.984375 -0.84375q1.78125 0 3.21875 0.765625q1.4375 0.75 2.453125 2.09375q1.015625 1.328125 1.5625 3.125q0.5625 1.796875 0.5625 3.828125l0 7.1875l11.125 -13.703125q1.234375 -1.6875 3.28125 -2.484375q2.046875 -0.8125 4.03125 -0.8125q1.78125 0 3.21875 0.765625q1.4375 0.75 2.453125 2.09375q1.015625 1.328125 1.5625 3.125q0.5625 1.796875 0.5625 3.828125l0 47.09375l9.140625 0q-0.171875 1.484375 -0.828125 2.8125q-0.65625 1.328125 -1.65625 2.3125q-0.984375 0.96875 -2.265625 1.546875q-1.265625 0.5625 -2.65625 0.5625l-3.984375 0q-1.640625 0 -3.0625 -0.84375q-1.421875 -0.84375 -2.46875 -2.28125q-1.03125 -1.4375 -1.625 -3.390625q-0.578125 -1.953125 -0.578125 -4.140625l0 -45.203125l-16.25 19.421875l0 36.4375l-9.984375 0l0 -55.859375l-17.4375 19.421875l0 36.4375l-10.109375 0l0 -64.140625zm83.90593 19.84375l10.109375 0l0 16.75l13.078125 -13.53125q1.34375 -1.578125 2.796875 -2.421875q1.46875 -0.84375 3.5 -0.84375q1.703125 0 3.265625 0.84375q1.5625 0.84375 2.75 2.3125q1.1875 1.453125 1.875 3.40625q0.703125 1.9375 0.703125 4.1875l0 26.3125l8.546875 0q-0.171875 1.53125 -0.828125 2.84375q-0.65625 1.3125 -1.65625 2.3125q-0.984375 0.984375 -2.265625 1.5625q-1.265625 0.5625 -2.65625 0.5625l-3.296875 0q-1.6875 0 -3.15625 -0.84375q-1.453125 -0.84375 -2.53125 -2.296875q-1.078125 -1.46875 -1.71875 -3.40625q-0.640625 -1.953125 -0.640625 -4.203125l0 -25.71875l-17.765625 18.28125l0 18.1875l-10.109375 0l0 -44.296875z" fill-rule="nonzero"/><path fill="#000000" fill-opacity="0.0" d="m211.8084 44.343834l44.7874 0l0 42.015747l-44.7874 0z" fill-rule="evenodd"/><path fill="#ffffff" d="m222.54277 67.90446q0 -0.34375 0.0625 -0.671875q0.078125 -0.328125 0.203125 -0.609375q0.125 -0.28125 0.296875 -0.484375q0.1875 -0.21875 0.40625 -0.328125l4.578125 -2.375l0 -4.421875l-3.390625 0l0 1.703125l-2.15625 0l0 -0.953125q0 -0.484375 0.125 -0.890625q0.140625 -0.421875 0.375 -0.734375q0.234375 -0.328125 0.546875 -0.5q0.328125 -0.1875 0.6875 -0.1875l4.25 0q0.359375 0 0.671875 0.1875q0.3125 0.171875 0.546875 0.5q0.234375 0.3125 0.375 0.734375q0.140625 0.40625 0.140625 0.890625l0 3.390625q0 0.734375 -0.296875 1.171875q-0.296875 0.4375 -0.78125 0.671875l-4.484375 2.359375l0 2.34375l5.5625 0l0 1.5625l-7.71875 0l0 -3.359375zm11.751556 0.078125l2.171875 0l0 1.71875l3.609375 0l0 -4.984375l-5.78125 0l0 -7.265625l7.625 0l0 1.65625l-5.453125 0l0 4.0625l4.046875 0q0.359375 0 0.65625 0.1875q0.3125 0.171875 0.546875 0.5q0.25 0.3125 0.375 0.734375q0.140625 0.421875 0.140625 0.921875l0 3.4375q0 0.484375 -0.140625 0.90625q-0.125 0.40625 -0.375 0.734375q-0.234375 0.3125 -0.546875 0.5q-0.296875 0.171875 -0.65625 0.171875l-4.484375 0q-0.359375 0 -0.671875 -0.171875q-0.3125 -0.1875 -0.546875 -0.5q-0.234375 -0.328125 -0.375 -0.734375q-0.140625 -0.421875 -0.140625 -0.90625l0 -0.96875z" fill-rule="nonzero"/><path fill="#000000" fill-opacity="0.0" d="m95.291336 183.99332l109.38583 0l0 42.015747l-109.38583 0z" fill-rule="evenodd"/><path fill="#ffffff" d="m118.90197 208.43994l2.171875 0l0 1.71875l3.609375 0l0 -4.984375l-5.78125 0l0 -7.265625l7.625 0l0 1.65625l-5.453125 0l0 4.0625l4.046875 0q0.359375 0 0.65625 0.1875q0.3125 0.171875 0.546875 0.5q0.25 0.3125 0.375 0.734375q0.140625 0.421875 0.140625 0.921875l0 3.4375q0 0.484375 -0.140625 0.90625q-0.125 0.40625 -0.375 0.734375q-0.234375 0.3125 -0.546875 0.5q-0.296875 0.171875 -0.65625 0.171875l-4.484375 0q-0.359375 0 -0.671875 -0.171875q-0.3125 -0.1875 -0.546875 -0.5q-0.234375 -0.328125 -0.375 -0.734375q-0.140625 -0.421875 -0.140625 -0.90625l0 -0.96875zm11.179451 -1.5l2.6875 -9.03125l2.234375 0l-2.71875 9.171875l3.5625 0l0 -5.0625l2.171875 -0.421875l0 5.484375l1.53125 0l0 1.546875l-1.53125 0l0 3.09375l-2.171875 0l0 -3.09375l-5.765625 0l0 -1.6875zm12.221329 3.359375q0 -0.3125 0.125 -0.59375q0.125 -0.28125 0.328125 -0.484375q0.203125 -0.21875 0.484375 -0.328125q0.28125 -0.125 0.59375 -0.125q0.328125 0 0.59375 0.125q0.28125 0.109375 0.484375 0.328125q0.21875 0.203125 0.34375 0.484375q0.125 0.28125 0.125 0.59375q0 0.3125 -0.125 0.59375q-0.125 0.28125 -0.34375 0.5q-0.203125 0.203125 -0.484375 0.328125q-0.28125 0.109375 -0.59375 0.109375q-0.3125 0 -0.59375 -0.109375q-0.28125 -0.125 -0.484375 -0.328125q-0.203125 -0.21875 -0.328125 -0.5q-0.125 -0.28125 -0.125 -0.59375zm8.255264 -0.140625l4.5625 0l0 -3.03125l-4.015625 0q-0.359375 0 -0.6875 -0.171875q-0.3125 -0.1875 -0.546875 -0.5q-0.234375 -0.3125 -0.375 -0.734375q-0.140625 -0.4375 -0.140625 -0.921875l0 -4.5625q0 -0.484375 0.140625 -0.90625q0.140625 -0.421875 0.375 -0.734375q0.234375 -0.3125 0.546875 -0.484375q0.328125 -0.1875 0.6875 -0.1875l4.453125 0q0.359375 0 0.671875 0.1875q0.328125 0.171875 0.5625 0.484375q0.25 0.3125 0.375 0.734375q0.140625 0.421875 0.140625 0.90625l0 9.171875q0 0.484375 -0.140625 0.90625q-0.125 0.40625 -0.375 0.734375q-0.234375 0.3125 -0.5625 0.5q-0.3125 0.171875 -0.671875 0.171875l-5.0 0l0 -1.5625zm4.5625 -4.515625l0 -6.15625l-3.59375 0l0 6.15625l3.59375 0zm5.9945526 3.140625l2.171875 0l0 1.375l3.65625 0l0 -4.296875l-3.078125 0l0 -1.5625l3.078125 0l0 -4.796875l-3.65625 0l0 1.71875l-2.171875 0l0 -0.96875q0 -0.484375 0.125 -0.90625q0.140625 -0.421875 0.375 -0.734375q0.25 -0.3125 0.5625 -0.484375q0.3125 -0.1875 0.671875 -0.1875l4.53125 0q0.359375 0 0.671875 0.1875q0.328125 0.171875 0.5625 0.484375q0.234375 0.3125 0.375 0.734375q0.140625 0.421875 0.140625 0.90625l0 2.5q0 0.375 -0.109375 0.734375q-0.109375 0.34375 -0.296875 0.65625q-0.171875 0.296875 -0.421875 0.53125q-0.25 0.21875 -0.546875 0.375q0.296875 0.15625 0.546875 0.390625q0.25 0.21875 0.421875 0.515625q0.1875 0.296875 0.296875 0.640625q0.109375 0.34375 0.109375 0.71875l0 2.09375q0 0.484375 -0.140625 0.90625q-0.140625 0.40625 -0.375 0.734375q-0.234375 0.3125 -0.5625 0.5q-0.3125 0.171875 -0.671875 0.171875l-4.53125 0q-0.359375 0 -0.671875 -0.171875q-0.3125 -0.1875 -0.5625 -0.5q-0.234375 -0.328125 -0.375 -0.734375q-0.125 -0.421875 -0.125 -0.90625l0 -0.625zm12.143143 -2.25q0 -0.375 0.09375 -0.71875q0.109375 -0.359375 0.28125 -0.640625q0.1875 -0.296875 0.4375 -0.53125q0.265625 -0.234375 0.5625 -0.375q-0.296875 -0.15625 -0.5625 -0.390625q-0.25 -0.234375 -0.4375 -0.53125q-0.171875 -0.296875 -0.28125 -0.640625q-0.09375 -0.359375 -0.09375 -0.734375l0 -1.734375q0 -0.46875 0.140625 -0.890625q0.140625 -0.4375 0.375 -0.75q0.25 -0.3125 0.5625 -0.484375q0.3125 -0.1875 0.671875 -0.1875l4.53125 0q0.359375 0 0.671875 0.1875q0.328125 0.171875 0.5625 0.484375q0.234375 0.3125 0.359375 0.75q0.140625 0.421875 0.140625 0.890625l0 1.734375q0 0.375 -0.109375 0.734375q-0.09375 0.34375 -0.28125 0.640625q-0.171875 0.296875 -0.421875 0.53125q-0.25 0.234375 -0.546875 0.390625q0.296875 0.140625 0.546875 0.375q0.25 0.234375 0.421875 0.53125q0.1875 0.28125 0.28125 0.640625q0.109375 0.34375 0.109375 0.71875l0 2.875q0 0.484375 -0.140625 0.90625q-0.125 0.40625 -0.359375 0.734375q-0.234375 0.3125 -0.5625 0.5q-0.3125 0.171875 -0.671875 0.171875l-4.53125 0q-0.359375 0 -0.671875 -0.171875q-0.3125 -0.1875 -0.5625 -0.5q-0.234375 -0.328125 -0.375 -0.734375q-0.140625 -0.421875 -0.140625 -0.90625l0 -2.875zm5.828125 -3.015625l0 -4.046875l-3.640625 0l0 4.046875l3.640625 0zm0 6.640625l0 -5.078125l-3.640625 0l0 5.078125l3.640625 0z" fill-rule="nonzero"/><path fill="#000000" fill-opacity="0.0" d="m244.61417 264.19684c12.367706 0 22.393707 -10.025986 22.393707 -22.393692l0 -72.23622c0 -12.367691 10.026001 -22.393692 22.393707 -22.393692l0 0c-12.367706 0 -22.393707 -10.026001 -22.393707 -22.393707l0 -72.23622l0 0c0 -12.3677025 -10.026001 -22.393702 -22.393707 -22.393702z" fill-rule="evenodd"/><path fill="#000000" fill-opacity="0.0" d="m244.61417 264.19684c12.367706 0 22.393707 -10.025986 22.393707 -22.393692l0 -72.23622c0 -12.367691 10.026001 -22.393692 22.393707 -22.393692l0 0c-12.367706 0 -22.393707 -10.026001 -22.393707 -22.393707l0 -72.23622l0 0c0 -12.3677025 -10.026001 -22.393702 -22.393707 -22.393702" fill-rule="evenodd"/><path stroke="#000000" stroke-width="12.0" stroke-linejoin="round" stroke-linecap="butt" d="m244.61417 264.19684c12.367706 0 22.393707 -10.025986 22.393707 -22.393692l0 -72.23622c0 -12.367691 10.026001 -22.393692 22.393707 -22.393692l0 0c-12.367706 0 -22.393707 -10.026001 -22.393707 -22.393707l0 -72.23622l0 0c0 -12.3677025 -10.026001 -22.393702 -22.393707 -22.393702" fill-rule="evenodd"/><path fill="#000000" fill-opacity="0.0" d="m55.354332 264.19684c-12.3677025 0 -22.393703 -10.025986 -22.393703 -22.393692l0 -72.23622c0 -12.367691 -10.025999 -22.393692 -22.3937 -22.393692l0 0c12.367701 0 22.3937 -10.026001 22.3937 -22.393707l0 -72.23622l0 0c0 -12.3677025 10.026001 -22.393702 22.393703 -22.393702z" fill-rule="evenodd"/><path fill="#000000" fill-opacity="0.0" d="m55.354332 264.19684c-12.3677025 0 -22.393703 -10.025986 -22.393703 -22.393692l0 -72.23622c0 -12.367691 -10.025999 -22.393692 -22.3937 -22.393692l0 0c12.367701 0 22.3937 -10.026001 22.3937 -22.393707l0 -72.23622l0 0c0 -12.3677025 10.026001 -22.393702 22.393703 -22.393702" fill-rule="evenodd"/><path stroke="#000000" stroke-width="12.0" stroke-linejoin="round" stroke-linecap="butt" d="m55.354332 264.19684c-12.3677025 0 -22.393703 -10.025986 -22.393703 -22.393692l0 -72.23622c0 -12.367691 -10.025999 -22.393692 -22.3937 -22.393692l0 0c12.367701 0 22.3937 -10.026001 22.3937 -22.393707l0 -72.23622l0 0c0 -12.3677025 10.026001 -22.393702 22.393703 -22.393702" fill-rule="evenodd"/><path fill="#000000" fill-opacity="0.0" d="m32.96063 241.80315c0 12.367706 10.026001 22.393692 22.393703 22.393692l72.23622 0c12.367699 0 22.3937 10.026001 22.3937 22.393707l0 0c0 -12.367706 10.026001 -22.393707 22.393707 -22.393707l72.236206 0l0 0c12.367706 0 22.393707 -10.025986 22.393707 -22.393692z" fill-rule="evenodd"/><path fill="#000000" fill-opacity="0.0" d="m32.96063 241.80315c0 12.367706 10.026001 22.393692 22.393703 22.393692l72.23622 0c12.367699 0 22.3937 10.026001 22.3937 22.393707l0 0c0 -12.367706 10.026001 -22.393707 22.393707 -22.393707l72.236206 0l0 0c12.367706 0 22.393707 -10.025986 22.393707 -22.393692" fill-rule="evenodd"/><path stroke="#000000" stroke-width="12.0" stroke-linejoin="round" stroke-linecap="butt" d="m32.96063 241.80315c0 12.367706 10.026001 22.393692 22.393703 22.393692l72.23622 0c12.367699 0 22.3937 10.026001 22.3937 22.393707l0 0c0 -12.367706 10.026001 -22.393707 22.393707 -22.393707l72.236206 0l0 0c12.367706 0 22.393707 -10.025986 22.393707 -22.393692" fill-rule="evenodd"/><path fill="#000000" fill-opacity="0.0" d="m32.96063 52.54331c0 -12.3677025 10.026001 -22.393702 22.393703 -22.393702l72.23622 0c12.367699 0 22.3937 -10.026001 22.3937 -22.393702l0 0c0 12.367701 10.026001 22.393702 22.393707 22.393702l72.236206 0l0 0c12.367706 0 22.393707 10.025999 22.393707 22.393702z" fill-rule="evenodd"/><path fill="#000000" fill-opacity="0.0" d="m32.96063 52.54331c0 -12.3677025 10.026001 -22.393702 22.393703 -22.393702l72.23622 0c12.367699 0 22.3937 -10.026001 22.3937 -22.393702l0 0c0 12.367701 10.026001 22.393702 22.393707 22.393702l72.236206 0l0 0c12.367706 0 22.393707 10.025999 22.393707 22.393702" fill-rule="evenodd"/><path stroke="#000000" stroke-width="12.0" stroke-linejoin="round" stroke-linecap="butt" d="m32.96063 52.54331c0 -12.3677025 10.026001 -22.393702 22.393703 -22.393702l72.23622 0c12.367699 0 22.3937 -10.026001 22.3937 -22.393702l0 0c0 12.367701 10.026001 22.393702 22.393707 22.393702l72.236206 0l0 0c12.367706 0 22.393707 10.025999 22.393707 22.393702" fill-rule="evenodd"/><path fill="#000000" fill-opacity="0.0" d="m85.41732 207.98645l129.13385 0l0 42.015747l-129.13385 0z" fill-rule="evenodd"/><path fill="#ffffff" d="m99.79232 221.74557q0 -0.46875 0.15625 -0.875q0.171875 -0.40625 0.4375 -0.703125q0.28125 -0.3125 0.65625 -0.484375q0.375 -0.171875 0.78125 -0.171875l3.046875 0l0 1.3125l-3.0 0l0 17.125l3.0 0l0 1.34375l-3.046875 0q-0.40625 0 -0.78125 -0.1875q-0.375 -0.171875 -0.65625 -0.484375q-0.265625 -0.296875 -0.4375 -0.703125q-0.15625 -0.40625 -0.15625 -0.875l0 -15.296875zm9.310745 10.5l-2.09375 0q0.03125 -0.328125 0.171875 -0.609375q0.140625 -0.28125 0.34375 -0.484375q0.21875 -0.21875 0.484375 -0.34375q0.28125 -0.125 0.59375 -0.125l0.78125 0l1.203125 -7.0625q0.0625 -0.375 0.234375 -0.6875q0.1875 -0.3125 0.421875 -0.546875q0.25 -0.234375 0.53125 -0.359375q0.296875 -0.125 0.59375 -0.125l2.21875 0q0.28125 0 0.5625 0.125q0.296875 0.125 0.546875 0.359375q0.25 0.234375 0.421875 0.546875q0.171875 0.3125 0.234375 0.703125l2.078125 12.078125l-2.171875 0l-0.5625 -3.46875l-4.46875 0l-0.5625 3.46875l-2.15625 0l0.59375 -3.46875zm6.34375 -1.5625l-1.171875 -7.234375l-1.65625 0q-0.296875 1.765625 -0.578125 3.578125q-0.28125 1.8125 -0.578125 3.65625l3.984375 0zm5.4320526 -5.515625l2.1875 0l0 1.015625l6.8593674 0q-0.03125 0.3125 -0.171875 0.609375q-0.140625 0.28125 -0.359375 0.5q-0.203125 0.203125 -0.46875 0.328125q-0.265625 0.109375 -0.546875 0.109375l0 6.421875l2.109375 0q-0.03125 0.328125 -0.171875 0.609375q-0.140625 0.28125 -0.359375 0.5q-0.21875 0.203125 -0.515625 0.328125q-0.28125 0.125 -0.59375 0.125l-0.9062424 0q-0.359375 0 -0.6875 -0.171875q-0.3125 -0.1875 -0.546875 -0.5q-0.234375 -0.328125 -0.375 -0.734375q-0.140625 -0.421875 -0.140625 -0.90625l0 -5.671875l-3.140625 0l0 7.984375l-2.171875 0l0 -10.546875zm15.020851 12.765625l0 -17.109375l-2.984375 0l0 -1.328125l3.0 0q0.4375 0 0.8125 0.171875q0.375 0.171875 0.65625 0.484375q0.28125 0.296875 0.4375 0.703125q0.171875 0.40625 0.171875 0.859375l0 15.296875q0 0.46875 -0.171875 0.875q-0.15625 0.40625 -0.4375 0.703125q-0.28125 0.296875 -0.65625 0.46875q-0.375 0.1875 -0.8125 0.1875l-3.0 0l0 -1.3125l2.984375 0zm6.3732452 -7.0l2.6875 -9.03125l2.234375 0l-2.71875 9.171875l3.5625 0l0 -5.0625l2.1718903 -0.421875l0 5.484375l1.53125 0l0 1.546875l-1.53125 0l0 3.09375l-2.1718903 0l0 -3.09375l-5.765625 0l0 -1.6875zm14.861969 -5.296875l2.1875 0q-0.078125 0.1875 -0.125 0.390625q-0.046875 0.203125 -0.0625 0.328125q-0.03125 0.328125 0.109375 0.609375q0.140625 0.265625 0.375 0.515625q0.234375 0.25 0.53125 0.5q0.3125 0.25 0.625 0.515625q0.359375 0.296875 0.734375 0.671875q0.375 0.375 0.671875 0.828125q0.3125 0.453125 0.5 0.96875q0.1875 0.5 0.15625 1.046875q-0.015625 0.375 -0.15625 0.734375q-0.140625 0.34375 -0.390625 0.625q-0.234375 0.28125 -0.546875 0.484375q-0.3125 0.1875 -0.65625 0.28125l3.390625 0q-0.125 0.359375 -0.3125 0.65625q-0.171875 0.28125 -0.40625 0.484375q-0.21875 0.203125 -0.484375 0.328125q-0.25 0.109375 -0.546875 0.109375l-2.484375 0q-0.421875 0 -0.703125 -0.125q-0.28125 -0.140625 -0.4375 -0.359375q-0.15625 -0.21875 -0.21875 -0.5q-0.0625 -0.296875 -0.03125 -0.59375q0.296875 -0.046875 0.578125 -0.15625q0.28125 -0.125 0.5 -0.34375q0.21875 -0.234375 0.375 -0.5625q0.15625 -0.34375 0.1875 -0.8125q0.03125 -0.375 -0.078125 -0.703125q-0.109375 -0.328125 -0.296875 -0.609375q-0.171875 -0.296875 -0.40625 -0.5625q-0.234375 -0.265625 -0.46875 -0.515625q-0.234375 -0.3125 -0.46875 -0.734375q-0.234375 -0.4375 -0.34375 -1.078125l-2.875 7.65625l-2.25 0l3.828125 -10.078125z" fill-rule="nonzero"/><path fill="#ffffff" d="m165.27693 226.47995q0 -0.234375 0.046875 -0.453125q0.046875 -0.21875 0.125 -0.40625q0.09375 -0.1875 0.203125 -0.328125q0.125 -0.140625 0.265625 -0.21875l3.0625 -1.578125l0 -2.9375l-2.265625 0l0 1.125l-1.4375 0l0 -0.640625q0 -0.3125 0.09375 -0.59375q0.09375 -0.28125 0.234375 -0.484375q0.15625 -0.21875 0.375 -0.328125q0.21875 -0.125 0.453125 -0.125l2.828125 0q0.234375 0 0.453125 0.125q0.21875 0.109375 0.359375 0.328125q0.15625 0.203125 0.25 0.484375q0.09375 0.28125 0.09375 0.59375l0 2.265625q0 0.484375 -0.203125 0.78125q-0.1875 0.28125 -0.5 0.453125l-3.0 1.5625l0 1.5625l3.703125 0l0 1.046875l-5.140625 0l0 -2.234375z" fill-rule="nonzero"/><path fill="#ffffff" d="m173.32484 232.77682l2.171875 0l0 1.375l3.65625 0l0 -4.296875l-3.078125 0l0 -1.5625l3.078125 0l0 -4.796875l-3.65625 0l0 1.71875l-2.171875 0l0 -0.96875q0 -0.484375 0.125 -0.90625q0.140625 -0.421875 0.375 -0.734375q0.25 -0.3125 0.5625 -0.484375q0.3125 -0.1875 0.671875 -0.1875l4.53125 0q0.359375 0 0.671875 0.1875q0.328125 0.171875 0.5625 0.484375q0.234375 0.3125 0.375 0.734375q0.140625 0.421875 0.140625 0.90625l0 2.5q0 0.375 -0.109375 0.734375q-0.109375 0.34375 -0.296875 0.65625q-0.171875 0.296875 -0.421875 0.53125q-0.25 0.21875 -0.546875 0.375q0.296875 0.15625 0.546875 0.390625q0.25 0.21875 0.421875 0.515625q0.1875 0.296875 0.296875 0.640625q0.109375 0.34375 0.109375 0.71875l0 2.09375q0 0.484375 -0.140625 0.90625q-0.140625 0.40625 -0.375 0.734375q-0.234375 0.3125 -0.5625 0.5q-0.3125 0.171875 -0.671875 0.171875l-4.53125 0q-0.359375 0 -0.671875 -0.171875q-0.3125 -0.1875 -0.5625 -0.5q-0.234375 -0.328125 -0.375 -0.734375q-0.125 -0.421875 -0.125 -0.90625l0 -0.625zm11.830643 -4.28125q0 -0.484375 0.125 -0.90625q0.140625 -0.421875 0.375 -0.734375q0.234375 -0.3125 0.546875 -0.484375q0.328125 -0.1875 0.6875 -0.1875l4.203125 0l0 -4.953125l2.171875 0l0 12.921875l1.734375 0q-0.046875 0.328125 -0.1875 0.609375q-0.140625 0.28125 -0.359375 0.5q-0.203125 0.203125 -0.484375 0.328125q-0.265625 0.125 -0.5625 0.125l-2.3125 0l0 -1.0q-0.25 0.46875 -0.640625 0.734375q-0.375 0.265625 -0.796875 0.265625l-2.765625 0q-0.359375 0 -0.6875 -0.171875q-0.3125 -0.1875 -0.546875 -0.5q-0.234375 -0.328125 -0.375 -0.734375q-0.125 -0.421875 -0.125 -0.90625l0 -4.90625zm5.9375 5.65625l0 -6.421875l-3.765625 0l0 6.421875l3.765625 0z" fill-rule="nonzero"/><path fill="#ffffff" d="m196.55135 226.52682l1.4375 0l0 1.140625l2.40625 0l0 -3.3125l-3.84375 0l0 -4.84375l5.0625 0l0 1.109375l-3.625 0l0 2.6875l2.703125 0q0.234375 0 0.4375 0.125q0.203125 0.125 0.359375 0.34375q0.15625 0.203125 0.25 0.484375q0.09375 0.28125 0.09375 0.609375l0 2.296875q0 0.328125 -0.09375 0.609375q-0.09375 0.28125 -0.25 0.484375q-0.15625 0.203125 -0.359375 0.328125q-0.203125 0.125 -0.4375 0.125l-3.0 0q-0.234375 0 -0.453125 -0.125q-0.203125 -0.125 -0.359375 -0.328125q-0.15625 -0.203125 -0.25 -0.484375q-0.078125 -0.28125 -0.078125 -0.609375l0 -0.640625z" fill-rule="nonzero"/></g></svg>